<?xml version="1.0" standalone="no"?>
<svg version="1.1" id="Layer_1_1_" xmlns="http://www.w3.org/2000/svg" xmlns:xlink="http://www.w3.org/1999/xlink" x="0px" y="0px" viewBox="0 0 2000 2000" enable-background="new 0 0 2000 2000" xml:space="preserve">
<polygon id="color_x5F_10" fill="#99C4F2" points="954.6,1792.2 47,1268.2 47,1331.7 954.6,1855.7 1953,1279.3 1953,1215.8 "></polygon>
<path id="color_x5F_9" fill="#FFFFFF" d="M1778.1,1114.8v99.8v81.7L1506.7,1140l0,0l-82-47.2l-0.4-76.6l0,0l0,0l0.4,0.2l-0.1-105.7
	l-121.7-70.3v86.3v81.7L949.3,804.9l-0.3-57.4L700,891.2l16.3,9.4l-32.1-0.2L472,1022.8l0.9,100.2h-0.1l1,115.9l-166.4,98.3
	l-100.9-57.1l-1-103.5L47,1268.2l907.6,524l998.4-576.4L1778.1,1114.8z M607.7,1184.5l183.1-105.7c0-0.1,0.1-0.1,0.1-0.2
	c-0.1-1-0.1-1.6-0.1-1.6s-0.4-2.2-1.2-5.8c-11.1-1.4-19-7.3-19-7.3c0.1-0.3,0.3-0.5,0.4-0.8c0-0.1,0.1-0.1,0.1-0.2
	c0.1-0.3,0.2-0.6,0.4-1v-0.1c0.1-0.3,0.2-0.7,0.3-1.1c0-0.1,0-0.1,0.1-0.2c0.1-0.4,0.2-0.8,0.4-1.3v-0.1c0.1-0.5,0.2-0.9,0.3-1.4
	l0,0c0.1-0.5,0.2-1.1,0.4-1.6v-0.1c0.2-1.1,0.5-2.3,0.7-3.6c2.2-12.8,3.6-31.8,4.4-45l0,0l0,0l0,0c0.3-5,0.5-9.2,0.6-11.7
	c-1-0.5-1.6-0.8-1.6-0.8s5.9-10.8,5.3-25.8c-0.5-13.8-5.3-23.6-6.1-25.1c-0.3,0.2-0.5,0.5-0.8,0.8c-6.3,9.8-9.7,24.1-9.7,24.1
	l0.1,18.3l-3.2,28.7c-0.4,0.2-0.7,0.4-1.1,0.6v4.3c0,0-0.3,0.1-0.7,0.3c0.8,3.4,2.2,3.3,2.7,4.6c0.7,1.6,8.9,6.7,8.9,6.7
	c-0.4,4.4-7.5,1.6-7.5,1.6c0.4,6.5,5.7,9.7,4.6,13c-1.1,3.3-5.5-2.4-5.5-2.4c0.7,5-3.4,0-3.4,0c-0.4,5.4-3.2-1.7-3.2-1.7
	c0.4,2.8-0.6,2.6-0.6,2.6c-3.8-2.9-4.4-16-4.5-23.3c-0.8-0.2-1.5-0.4-2.1-0.9l-0.7-4c-1.6-0.7-2.6-1.4-2.6-1.4l-1.5-46.2l17-51.7
	c0,0,2.8-10.6,12.7-14.4s15.6-11.8,15.6-11.8l1-5.8c-0.2-4.1-0.6-8.3-0.8-10.8c-1.1-1.5-1.7-2.4-1.7-2.4s-8.2-0.1-7.8-6.7
	c0.2-2.7,1.3-3.4,2.5-3.4c-1.7-4.2-1.7-12.8,4.2-16.9c0,0-0.9-6.3,5.6-8.3s26.4,0.5,29.4-2.8s3.6-6,3.6-6s2.3,5.4-0.4,9.4
	c0,0,1.3,1.9,3.5-0.1c0,0-1,5.1-4.7,6.8c0,0,8.8,12,1.8,22.4c0,0-0.1-0.7-0.3-1.9c0.3,7.8-0.5,15.2-3.2,20.1
	c0.6,0.4,1.4,1.2,2.5,2.6c0.4,0.6,0.7,1.8,0.9,3.6l0,0c2.3,4.2,5.4,14.8,4.6,41.5c0,0,1.2,11.1,5.7,16c4.5,5,20.4,30.4,20.4,30.4
	s-0.2,1-1,2.4l2.2,3.7l0,0c1.5,2.2,2.6,3.6,2.6,3.6s12.2,3.1,14.2,2.6c2-0.6,1,5.2-8.4,3.5c0,0,11.1,11.7,14.6,13.2
	c3.5,1.4,0.7,2.7-4.4,1.2c0,0,4,4.7,2.2,4.6c-1.8-0.1-7.2-3.1-7.2-3.1s4.6,6.4,2.6,5.8c-2-0.5-5-3.6-5-3.6s2.8,4.6,1.1,5
	c-1.7,0.5-7.9-8.3-7.9-8.3s-10.8-11.8-10.8-14.7c0-0.3-0.4-1.1-1.2-2.2c-0.1,0.1-0.3,0.1-0.4,0.2l-3.7-3.1c-0.2,0.1-0.3,0.2-0.5,0.2
	l-2.2-2.5l-0.5-0.4l0.1-0.1l-12-13.6c1.9,8.2,3.5,14.4,3.5,14.4c-0.8,0.8-1.6,1.6-2.5,2.4l4.8,46.3l0,0l1,9.4c-1.4,2.8-7,5-12.7,6.5
	c-0.4,2.1-0.8,4.2-1.2,6.2l35.1-20.3l140.1,80.9v32.4l-252.2,145.6l-140.1-80.9v-32.3H607.7z M763.6,1010.4L763.6,1010.4
	L763.6,1010.4L763.6,1010.4z M1405.9,1382l-252.2,145.6l-116.6-67.3l-4.6,13.4h0.1l-0.2,137.8l-119.2,68.7L794,1611.5l-0.1-137.7
	l-47.7-82.5l119.2-68.6l47.7,82.4l71.5,41.2l28.9-16.7v-15.2l153-88.3l-0.6-12l-4.7-100.7v-0.1c0-1.6,0.1-18.6,0.3-39.8
	c-3.5,2.3-8.2,3.5-14,1.4c-12.4-4.3-29.8-33.2-35.6-43.5l-38.5-22.2l11.3-6.5l0,0l3.5-2l14.4-8.3l43.7,25.2l-15.5,9l15.7,15.3
	c-2.1-52.1,18-60.9,18.7-61.2l0.1,0.2c2.2-3.8,6.5-6.4,9.5-7.8c0.2-0.1,0.3-0.1,0.5-0.2c1.6-0.8,2.8-1.2,2.8-1.2s0.1-0.3,0.2-0.8
	c0.3-1.1,0.8-3.1,1.3-5.2l0,0c0.2-1,0.5-2,0.7-2.9c-7.9,1-15.6,0.7-17.6-1.7c-1.4-1.7-1.5-5.7-0.9-10.4c-0.5,0.1-1.1-0.1-1.6-1.2
	c-1.7-3.2,0-6.4,0-6.4s1.5-0.3,3-0.1c1.7-8.2,4.2-16,4.2-16s-8-11.3,2.3-20.1s22.2,1.2,22.2,1.2s17.2-0.2,19.9,11.7s3.2,12.7,1,18.1
	s-1.7,10.1-7,10.2l0,0c-1.8,3.3-3.5,6.1-4.3,7.8c-0.5,1-2,2-4.3,3v4l0,0v4.3c0,0,0.5-0.4,1.4-0.9l0,0c0.6-0.3,1.4-0.7,2.4-1
	c0.8-0.3,1.8-0.5,2.9-0.6c0.6-0.1,1.3-0.1,1.9-0.1c3.3,0,7.5,0.9,12.2,4l0,0c2,1.4,12.9,1.1,14.9,30.3c2,29.2,6.2,102.4,6.2,102.4
	l-2.3,0.8c1.5,4.3,4.2,12.1,3.3,16.6c-0.6,3.2-5,7.3-8.7,9.7l-3.4,62.5l37.9-21.9l140.1,80.9v32.1H1405.9z"></path>
<path id="color_x5F_8" fill="#FFFFFF" d="M770.6,1063.9c1.1-2.3,2.1-6.4,3-11.5c12.9,12.5,31.3,9.3,37.9,7.5l0.2,6.7
	C790.7,1079,770.6,1063.9,770.6,1063.9z M844,987.5L844,987.5l0.4,0.5L844,987.5z M810.4,1045.6l1,10.1c0,0,24.2-2.9,27.4-9.3
	l-1-9.4C837.8,1037,826.1,1047.2,810.4,1045.6z M1006.2,187.1l-5.3-3.6v21.4l5.3,3.1V187.1z M859,985.4l-2.2-3.7
	c-1.2,2.2-3.9,5.6-9.7,8.4l3.7,3.1C855,991.5,859,985.4,859,985.4z M812.2,898.7c-2,1.6-6.1,4.1-13.2,4.4c4.1,2.8,8.7,3.7,11.1,1.7
	C811.5,903.7,812.1,901.3,812.2,898.7z M1012.8,195.7l-5.3-3.6v17l5.3,3.1V195.7z M813.3,891c-1.5-0.1-3-0.4-4.5-1l-0.6,3.5l7,2.9
	L813.3,891z M761.5,1020.9v-6.4h-12.6l1.3,6.9C753.7,1024.1,761.5,1020.9,761.5,1020.9z M802.4,893.3c-9.1-2.8-10.6-7.6-10.6-7.6
	l-1.1,6.1l4.4,10.9L802.4,893.3z M1026,214l-5.3-3.6v7.1l5.3,3.1V214z M1744.8,637.9l-2.9-1.5v-5.5l2.9,1.3v-4.9l24.4,12.2v17.4
	l-24.4-13.7V637.9z M1763.2,651l4.5,2.6v-12.4l-4.5-2.3V651z M1757.5,648.2l4.5,2.6v-12.4l-4.5-2.3V648.2z M1751.8,645.1l4.5,2.6
	v-12.4l-4.5-2.3V645.1z M1746.1,642.1l4.5,2.6v-12.4l-4.5-2.3V642.1z M1746.1,723.7c8,0,14.4-12.2,14.4-27.2s-6.5-27.2-14.4-27.2
	c-8,0-14.4,12.2-14.4,27.2S1738.2,723.7,1746.1,723.7z M1019.4,204.1l-5.3-3.6v12.8l5.3,3.1V204.1z M1647,915.1
	c-7.6-4.4-13.1,3.1-13.2,23.1c-0.1,19.1,5,32.9,12.9,37.5c8.9,5.1,13.1-4.3,13.2-23.1C1659.9,934.5,1655.9,920.3,1647,915.1z
	 M1778.1,753.1v461.5l-271.4-152.2l0,0l-37.2-20.8l-44.9-25.2l-0.3-464.5L1778.1,753.1z M1513.2,883.8c0-10.1-5.1-18.9-15.2-29.5
	c-8.6-9-12.2-14.1-12.2-19.9c0-4.5,2.9-8.1,10.5-3.7c6.3,3.6,10.3,8.5,12.4,11l2.5-6c-2.9-3.6-6.9-7.7-12.8-11.4v-11l-6.1-3.5v11.4
	c-9.1-3.5-14.9,0.2-14.9,9.6c0,9.8,6.2,18.6,16.2,29c7.3,7.6,11.1,13.7,11.1,19.9c0,6.5-4.7,8.4-11.7,4.3c-5.5-3.2-10.6-8.3-14.2-13
	l-2.4,6.2c3.4,4.8,9.4,10.3,15.1,13.7v11.4l6.2,3.6v-11.8C1507.8,898,1513.2,892.7,1513.2,883.8z M1552.3,854l-7.4-4.3l-14,0.5
	l1.7,8.6l11.1-0.5l0.2,0.1l-0.2,64.3l8.4,4.8L1552.3,854z M1618,928c0.1-23.4-7.6-41.7-21.1-49.4c-13-7.5-22.3,0.7-22.4,25.4
	c0.1,24.4,8.6,42.8,21.1,50C1609.9,962.1,1618,953,1618,928z M1668.5,957.1c0.1-23.4-7.6-41.7-21.1-49.4c-13-7.5-22.3,0.7-22.4,25.4
	c0.1,24.4,8.6,42.8,21.1,50C1660.4,991.3,1668.5,982.1,1668.5,957.1z M1494.7,492.1l-5.3-3.6v12.8l5.3,3.1V492.1z M1501.3,501.9
	l-5.3-3.6v7.1l5.3,3.1V501.9z M1270.9,435.7c8,0,14.4-12.2,14.4-27.2s-6.5-27.2-14.4-27.2c-8,0-14.4,12.2-14.4,27.2
	S1262.9,435.7,1270.9,435.7z M1269.5,349.9l-2.9-1.5V343l2.9,1.3v-4.9l24.4,12.2V369l-24.4-13.7V349.9z M1287.9,363.1l4.5,2.6v-12.4
	l-4.5-2.3V363.1z M1282.2,360.2l4.5,2.6v-12.4l-4.5-2.3V360.2z M1276.5,357.2l4.5,2.6v-12.4l-4.5-2.3V357.2z M1270.9,354.1l4.5,2.6
	v-12.4l-4.5-2.3V354.1z M1488.1,483.7l-5.3-3.6v17l5.3,3.1V483.7z M1481.5,475l-5.3-3.6v21.4l5.3,3.1V475z M1596.4,885.9
	c-7.6-4.4-13.1,3.1-13.2,23.1c-0.1,19.1,5,32.9,12.9,37.5c8.9,5.1,13.1-4.3,13.2-23.1C1609.4,905.3,1605.4,891.1,1596.4,885.9z
	 M416.8,1137.8l-36.2-20.5l-53.6,31.6l36.1,20.5L416.8,1137.8z M1258.7,1424l121.5-70.1l-121.7-70.3L1258.7,1424z M852.8,1194.1
	l-20.6,11.9l0,0l142.1-82l-121.7-70.3L852.8,1194.1z M809.8,1090.2c-0.1,5.2-0.2,9.2-0.2,9.2l0.9,46c0,0,0.7,37.6,0.6,39.7
	c0,0.1,0,0.3,0,0.4c0.1,0,0.2,0,0.2,0c0.1,0,0.2,0,0.3,0s0.2,0.1,0.2,0.1s0,0,0.1,0c0.2,0.1,0.4,0.2,0.7,0.4l0,0
	c1.1,0.8,2.6,2.3,4.2,4.2v-108.6C813.9,1086.2,811.6,1088.8,809.8,1090.2z M1004.9,805.6l-32.2-22.3l32.6,36.3v-14.2
	C1005.3,805.6,1005.1,805.7,1004.9,805.6z M359.5,1210l0.2,18.9l80.5-47.6l-0.2-18.7L359.5,1210z M736.4,1175.8
	c-1.4-4.4-2.2-8.8-4.1-11.3c-4.4-5.8-7.9-9.2-8-12.9c-0.1-3.7,5-14.8,11.7-13.9c0,0,0.1,0.3,0.4,0.8v-17.8l26.1-15l-129.1,74.6
	l121.7,70.3l-18.8-10.9L736.4,1175.8z M974.2,783.8l30.9,10.7c0.1,0,0.1,0.1,0.1,0.2v-17.1l-32.5,5.7
	C973,783.3,974,783.7,974.2,783.8z M304.6,1027.7l0.4,39.2l94.3-56.2l72.2-42.2l-0.4-38.6L304.6,1027.7z M791.4,1204.1
	c-4.4-16.6,2.2-19.5,3.7-20c0.2-0.4,0.3-0.8,0.4-1.1c0.9-2.4-0.7-10.8-0.7-10.8c0.9-5.4-6.4-33.9-7.9-38c-0.8-2.4-1-11.4-0.3-19.7
	c-0.5,0.6-1.1,1.2-1.7,1.9v117l-29.9,17.2l57.3-33.1c-4.2-3.5-9.3-8.1-13.4-9.6C792.2,1205.4,791.4,1204.1,791.4,1204.1z
	 M1167,1336.4L1167,1336.4l-11.2,6.5L1167,1336.4z M1043.2,1412.4l13-7.5l-4.3,12.5l90.3,52.1l0.2-118.9l-103.1,59.5L1043.2,1412.4z
	 M1132.3,663.8c2.9-2,4.4-5.3,4.4-9.9c0-4-1.2-8.4-3.7-13.2s-7.3-10.7-14.4-17.7l-0.1,40.9C1124.8,665.9,1129.4,665.8,1132.3,663.8z
	 M1212.8,1389.2c-7.4-1.3-16.9-17.7-18.2-21.4c-1-2.7,8-2.9,12.8-2.8c-0.4-7.9-1.1-28.3-1.9-50.9l-14.1,8.2
	c-0.1,1.6-0.3,3.2-0.4,4.8v136l31.9-18.4V1389C1220.7,1389.7,1217.3,1390,1212.8,1389.2z M1102.7,529.1c-4.7-1-8-0.6-9.9,1
	c-1.8,1.6-2.8,4.2-2.8,7.7c0,3.8,0.9,7.6,2.8,11.4c1.9,3.9,5.1,8.1,9.8,12.6L1102.7,529.1z M1031.4,774.5L1031.4,774.5l-58.3-32.7
	l-23.8-13.4L948.9,264l353.9,201.2v461.5L1031.4,774.5z M1102.5,608.3l-0.1,45c-5.1-5.8-8.9-11.3-11.1-16.3
	c-2.3-5.1-4-12.2-5.3-21.3l-44.8-19.9c1.3,9.3,3.3,17.7,5.9,25.2s6.4,15.3,11.3,23.3s10.7,15.5,17.5,22.3s15.5,14,26.4,21.3
	l-0.1,24.1l16.2,9.3l0.1-24.1c9.1,4.8,16.8,7.9,23,9.1c6.3,1.3,12.2,1,17.8-1c5.6-2,10.2-5.8,13.8-11.4c3.6-5.7,5.4-13.1,5.5-22.4
	c0-15.8-4.9-31.7-14.8-47.7c-7.5-12-22.5-27.9-44.9-47.8l0.1-36.8c3.8,4.6,6.6,8.5,8.2,11.8c1.7,3.3,3.5,8.6,5.6,15.8l41.2,16.3
	c-2.6-15.1-8.3-29.1-17-42c-8.7-12.8-21.4-24.7-37.9-35.4v-12.6l-16.2-9.3v12.6c-18.2-9.4-31.8-11.6-41.1-6.8
	c-9.2,4.8-13.9,14.8-13.9,29.9c0,11.1,2.2,21.7,6.8,32c4.6,10.3,9.9,19.1,16.2,26.1C1077,584.7,1087.6,594.9,1102.5,608.3z
	 M1448,1071.2l32.6,36.3v-14.2v-10.7v-17.1L1448,1071.2L1448,1071.2z M392.4,1024.8l-74.7,44.3l0.5,57.7l74.8-44.1L392.4,1024.8z"></path>
<path id="color_x5F_7" fill="#0122F7" d="M756.4,1154.2c0,0.3,0.1,0.5,0.1,0.8C756.4,1154.7,756.4,1154.5,756.4,1154.2z
	 M754.5,1153.2c0.7,0.2,1.3,0.5,1.8,0.7c-0.8-4.7-2.5-6.3-2.5-6.3c-4.5,0.1-7.9-0.9-10.5-2.2c-0.1,2.2,0,5.3,0.3,8.8
	C746.2,1152.6,750,1151.6,754.5,1153.2z M756.6,1156.5c-0.5,0-0.9,0-0.9,0s-6.3-3-11.9-0.4c0.5,3.5,1.3,7.2,2.7,10.6
	c2.3-1.6,5.8-3,10.2-2v0.1c-0.1-0.9-0.2-1.9-0.1-3C756.7,1159.7,756.7,1158,756.6,1156.5z M756.5,1155.6c0,0.3,0.1,0.6,0.1,0.9
	C756.6,1156.1,756.6,1155.9,756.5,1155.6z M757.6,1167.7L757.6,1167.7c-2.4-0.7-6.5-1.4-10.2,0.6c0.6,1.2,1.3,2.3,2.1,3.3
	c4.4,5.6,8.3,3.5,10.8,0.5C759.2,1170.8,758.2,1169.4,757.6,1167.7z M757.1,1166.2v-0.1C757.1,1166.2,757.1,1166.2,757.1,1166.2z
	 M743.8,1156.1c-0.1-0.7-0.2-1.3-0.2-2C743.7,1154.8,743.7,1155.4,743.8,1156.1z M746.6,1166.7c0.2,0.4,0.3,0.7,0.5,1
	C746.9,1167.4,746.8,1167.1,746.6,1166.7z M815.6,1201.7C815.5,1201.6,815.5,1201.6,815.6,1201.7
	C815.5,1201.6,815.5,1201.6,815.6,1201.7z M822,1196.3l0.1,0.1c-1.2-1.4-2.4-2.9-3.5-4.3c-1.9,0-4.5,0.7-6,4.5
	c-0.2,0.5-0.4,0.9-0.6,1.2l-2-2.1l5.5,5.9l-0.4-0.4C816.7,1199.4,819.5,1196.8,822,1196.3z M818.5,1192.1c-0.5-0.6-0.9-1.1-1.4-1.6
	C817.6,1191,818,1191.5,818.5,1192.1z M815.9,1201.8c-0.1,0-0.1-0.1-0.1-0.1C815.8,1201.8,815.8,1201.8,815.9,1201.8z M816.2,1189.6
	l0.9,0.9l-4.4-4.5c-0.5-0.3-0.9-0.5-1.2-0.6c-2.6-0.1-4.3,3.8-7.6,3.8l5.5,5.9C810.6,1193.7,813.5,1190.6,816.2,1189.6z
	 M827.3,1202.3c-1-1-2.1-2.2-3.3-3.6c0.1,0.1,0.3,0.3,0.4,0.5c-1.8-0.3-4.9-0.2-6.8,3.6c2.6,1.4,6.7,3.3,8.4,2.6
	C827.3,1204.9,827.5,1203.5,827.3,1202.3z M822.8,1197.2c0.2,0.2,0.4,0.5,0.6,0.7C823.2,1197.7,823,1197.5,822.8,1197.2z
	 M817.3,1202.6c0.1,0,0.1,0.1,0.2,0.1C817.4,1202.7,817.4,1202.7,817.3,1202.6z M816.1,1202c0.1,0,0.1,0.1,0.2,0.1
	C816.2,1202,816.2,1202,816.1,1202z M816.8,1202.4c-0.1,0-0.1-0.1-0.2-0.1C816.7,1202.3,816.8,1202.3,816.8,1202.4z M1763.2,639v12
	l4.5,2.6v-12.4L1763.2,639z M1757.5,636.1v12.1l4.5,2.6v-12.4L1757.5,636.1z M1751.8,633.1v12.1l4.5,2.6v-12.4L1751.8,633.1z
	 M1746.2,630v12.1l4.5,2.6v-12.4L1746.2,630z M1287.9,351v12.1l4.5,2.6v-12.4L1287.9,351z M1282.2,348.1v12.1l4.5,2.6v-12.4
	L1282.2,348.1z M1276.5,345.1v12.1l4.5,2.6v-12.4L1276.5,345.1z M1270.9,342v12.1l4.5,2.6v-12.4L1270.9,342z M913.1,1542.5
	l119.3-68.8L913.1,1405l-119.2,68.8L913.1,1542.5z"></path>
<path id="color_x5F_6" fill="#173aa5" d="M1163.7,623.7c9.9,16,14.9,31.9,14.8,47.7c0,9.3-1.9,16.7-5.5,22.4
	c-3.6,5.6-8.2,9.5-13.8,11.4c-5.6,1.9-11.5,2.3-17.8,1s-14-4.3-23-9.1l-0.1,24.1l-16.2-9.3l0.1-24.1c-10.9-7.4-19.6-14.5-26.4-21.3
	s-12.6-14.3-17.5-22.3s-8.7-15.8-11.3-23.3c-2.6-7.5-4.6-15.9-5.9-25.2l44.8,19.9c1.3,9.2,3.1,16.3,5.3,21.3
	c2.2,5,5.9,10.5,11.1,16.3l0.1-45c-14.9-13.4-25.5-23.6-31.7-30.7c-6.2-7.1-11.6-15.8-16.2-26.1s-6.8-21-6.8-32
	c0-15.1,4.7-25.1,13.9-29.9c9.2-4.8,22.9-2.6,41.1,6.8v-12.6l16.2,9.3v12.6c16.5,10.7,29.2,22.5,37.9,35.4c8.7,12.9,14.4,26.9,17,42
	l-41.2-16.3c-2-7.2-3.9-12.5-5.6-15.8s-4.4-7.2-8.2-11.8l-0.1,36.8C1141.2,595.8,1156.2,611.7,1163.7,623.7z M1132.3,663.8
	c2.9-2,4.4-5.3,4.4-9.9c0-4-1.2-8.4-3.7-13.2s-7.3-10.7-14.4-17.7l-0.1,40.9C1124.8,665.9,1129.4,665.8,1132.3,663.8 M1102.6,561.8
	l0.1-32.7c-4.7-1-8-0.6-9.9,1c-1.8,1.6-2.8,4.2-2.8,7.7c0,3.8,0.9,7.6,2.8,11.4C1094.7,553.1,1097.9,557.3,1102.6,561.8
	 M1492.3,809.7v11.4c-9.1-3.5-14.9,0.2-14.9,9.6c0,9.8,6.2,18.6,16.2,29c7.3,7.6,11.1,13.7,11.1,19.9c0,6.5-4.7,8.4-11.7,4.3
	c-5.5-3.2-10.6-8.3-14.2-13l-2.4,6.2c3.4,4.8,9.4,10.3,15.1,13.7v11.4l6.2,3.6V894c10.1,3.9,15.6-1.3,15.6-10.3
	c0-10.1-5.1-18.9-15.2-29.5c-8.6-9-12.2-14.1-12.2-19.9c0-4.5,2.9-8.1,10.5-3.7c6.3,3.6,10.3,8.5,12.4,11l2.5-6
	c-2.9-3.6-6.9-7.7-12.8-11.4v-11L1492.3,809.7z M1544.9,849.7l-14,0.5l1.7,8.6l11.1-0.5l0.2,0.1l-0.2,64.3l8.4,4.8l0.2-73.5
	L1544.9,849.7z M1597,878.5c13.5,7.8,21.1,26,21.1,49.4c-0.1,25-8.2,34.1-22.4,26c-12.5-7.2-20.9-25.6-21.1-50
	C1574.7,879.3,1584,871,1597,878.5z M1596.2,946.5c8.9,5.1,13.1-4.3,13.2-23.1c0.1-18.1-4-32.3-12.9-37.5
	c-7.6-4.4-13.1,3.1-13.2,23.1C1583.2,928.2,1588.3,942,1596.2,946.5 M1647.5,907.7c13.5,7.8,21.1,26,21.1,49.4
	c-0.1,25-8.2,34.1-22.4,26c-12.5-7.2-20.9-25.6-21.1-50C1625.2,908.4,1634.5,900.2,1647.5,907.7z M1646.7,975.7
	c8.9,5.1,13.1-4.3,13.2-23.1c0.1-18.1-4-32.3-12.9-37.5c-7.6-4.4-13.1,3.1-13.2,23.1C1633.7,957.3,1638.8,971.1,1646.7,975.7
	 M1102.6,1092.3l-29.1,16.8l43.7,25.2l29.1-16.8L1102.6,1092.3z M1084.7,1102.6l3.8,2.5l13.6-7.8l-3.8-2.6L1084.7,1102.6z"></path>
<path id="color_x5F_5" fill="#fae6d5" stroke="#F8C09C" stroke-miterlimit="10" d="M826.1,1052.9c-2.1,11.4-4.8,21.7-8,26.9
	c-3.5,5.8-6.2,8.8-8.2,10.4c-0.1,5.2-0.2,9.2-0.2,9.2l0.9,46c0,0,0.7,37.6,0.6,39.7c0,0.1,0,0.3,0,0.4c-0.1,0-0.2,0-0.3,0h-0.1
	c-0.1,0-0.2,0-0.4,0.1h-0.1c-0.1,0-0.2,0.1-0.4,0.1l0,0c-1.9,0.9-3.5,3.5-6.1,3.4c-0.1,0-0.1,0-0.2,0c-3.4-0.2-8.3-2.2-8.3-5.2
	c0,0-0.1,0-0.3,0.1c0.2-0.4,0.3-0.8,0.4-1.1c0.9-2.4-0.7-10.8-0.7-10.8c0.9-5.4-6.4-33.9-7.9-38c-0.8-2.4-1-11.4-0.3-19.7
	c-8.2,9.4-31.6,27.9-32.9,31.8c-0.1,0.4-0.2,0.9-0.3,1.4c-0.4,0-0.8,0-1.2,0c-0.1,0-0.3,0-0.4,0c-0.3,0-0.7,0-1-0.1
	c-0.1,0-0.3,0-0.4,0c-0.4,0-0.7-0.1-1.1-0.1c-0.1,0-0.1,0-0.2,0c-0.4-0.1-0.9-0.2-1.3-0.2h-0.1c-0.4-0.1-0.7-0.2-1.1-0.3
	c-0.1,0-0.1,0-0.2-0.1c-0.3-0.1-0.7-0.2-1-0.3h-0.1c-0.7-0.3-1.4-0.6-2.1-0.9c-5.4-2.9-7.1-7.6-7.1-7.6c-0.1,0-0.2,0-0.2,0
	c1.1-0.5,2.1-0.9,2.9-1.2c3.9-1.4,17.3-10.5,22.6-23.4c5.2-12.8,13-18.2,21.7-24.7c4.4-3.2,6.6-7,7.8-9.9c-0.1-1-0.1-1.6-0.1-1.6
	s-0.4-2.2-1.2-5.8c6.6,0.8,14.3,0,22.1-4.7l-0.3-10.8C811.4,1055.7,818.9,1054.8,826.1,1052.9z M881.9,1008.4
	c-3.5-1.4-14.6-13.2-14.6-13.2c9.3,1.7,10.3-4.1,8.4-3.5c-2,0.6-14.2-2.6-14.2-2.6s-1-1.4-2.6-3.6c-0.2,0.2-3.9,5.7-7.8,7.6
	c0.8,1.1,1.2,1.8,1.2,2.2c0,2.9,10.8,14.7,10.8,14.7s6.1,8.8,7.9,8.3c1.7-0.5-1.1-5-1.1-5s3,3,5,3.6c2,0.5-2.6-5.8-2.6-5.8
	s5.4,3,7.2,3.1s-2.2-4.6-2.2-4.6C882.6,1011.1,885.4,1009.8,881.9,1008.4z M763.5,1025.8c-0.5-1.3-1.8-1.2-2.7-4.6
	c-1.5,0.6-5.5,1.8-8.5,1.1c0.1,7.2,0.8,20.4,4.5,23.3c0,0,1,0.3,0.6-2.6c0,0,2.7,7,3.2,1.7c0,0,4.1,5,3.4,0c0,0,4.5,5.7,5.5,2.4
	c1.1-3.3-4.2-6.5-4.6-13c0,0,7.2,2.8,7.5-1.6C772.4,1032.5,764.2,1027.4,763.5,1025.8z M822.3,848.9c0,0-3.7,12.6-26.4,4
	c0,0-3.9,9.3-1.7,17.7c0,0-4.4-3.1-3.8-5.8c0,0-2.2,1.9-4.9,0c-0.5-0.4-1-1.1-1.4-2.1c-1.3,0-2.4,0.7-2.5,3.4
	c-0.4,6.6,7.8,6.7,7.8,6.7s0.6,1,1.7,2.4c0.2,2.5,0.6,6.7,0.8,10.8v-0.3c0,0,1.5,4.7,10.6,7.6c0,0,0.1,5.3,0.1,9.5
	c2.6-0.4,4.6-1.1,6.2-1.8l-0.5-7.5l0.4-2.5c-1.2,0.6-2.2,1.2-3.1,1.7c-0.2-1.5-0.6-3.1-1-4.6c2.8,1.7,5.8,2.8,8.9,3
	c11.2,0.7,13.9-12,13.4-25.7C826.1,860.9,824.3,850.2,822.3,848.9z M1236.7,1201.8l-4.2,1.6c-0.1,4.3-0.2,6.8-0.2,6.8l-1,18
	c3.7-2.5,8.1-6.6,8.7-9.7C1240.8,1214,1238.2,1206.2,1236.7,1201.8z M1192.3,1044.2c0,0,7.2-13.1-0.7-9c-7.9,4-6.5,8.2-6.5,8.2
	l-0.1,3.9h-2.6c0,0,3.3-10.9-1.5-12.8c-4.9-1.9-14.1-4.2-13.8-7.6l0,0l0,0c0,0-2.5,7.8-4.2,16c1.5,0.2,3.1,0.9,3.4,3
	c0.7,4.2-0.9,5.9-2.1,4.3c-0.8-1-1.6,0.3-2.6,0.5c-0.6,4.7-0.5,8.8,0.9,10.4c2.1,2.4,9.7,2.6,17.6,1.7c-0.2,1-0.4,2-0.7,2.9
	l17.5-2.9v-4c2.2-0.9,3.8-2,4.3-3c0.8-1.6,2.5-4.4,4.3-7.8C1200.3,1047.9,1194.1,1050.9,1192.3,1044.2z"></path>
<path id="color_x5F_4" fill="#00CEC9" d="M1185.5,1392.6c0.4,3.8,1.5,14.7-0.1,15.4c-1.8,0.8-30.1,3.7-38.5-6.3s21.6-10.3,21.6-10.3
	s0.5-0.5,1.1-1.1v0.4c0,0,6.3,8.1,15.8,2.1C1185.4,1392.8,1185.4,1392.8,1185.5,1392.6z M1223.4,1372.4c-6,7.7-15.5-4.9-15.8-3.9
	c0,0.1-0.1-1.1-0.2-3.5c-4.9-0.1-13.8,0-12.8,2.8c1.3,3.7,10.8,20.1,18.2,21.4s11.9-0.5,12.1-1.8c0.2-0.8-0.8-8.9-1.5-15.1
	L1223.4,1372.4z"></path>
<path id="color_x5F_3" fill="#710fce" d="M757.5,1167.5c0,0.1,0.1,0.1,0.1,0.2C757.6,1167.7,757.5,1167.6,757.5,1167.5z M758.2,1169
	c0,0,0-0.1-0.1-0.1C758.1,1168.9,758.1,1168.9,758.2,1169z M757.1,1166.3L757.1,1166.3L757.1,1166.3z M758.8,1170.1
	C758.8,1170.1,758.7,1170,758.8,1170.1C758.7,1170,758.8,1170.1,758.8,1170.1z M756.6,1163.5c0-0.1,0-0.2,0-0.3
	C756.6,1163.3,756.6,1163.4,756.6,1163.5z M759.4,1171.1l0.1,0.1C759.5,1171.2,759.5,1171.1,759.4,1171.1z M756.6,1161.7
	L756.6,1161.7c0-0.7,0.1-1.4,0.1-2C756.7,1160.4,756.7,1161,756.6,1161.7L756.6,1161.7z M760.2,1172.2c-2.6,2.9-6.4,5-10.8-0.5
	c-5.9-7.5-6.3-20.5-6.2-26.3l0,0c-5.4-2.9-7.1-7.6-7.1-7.6c-6.7-0.9-11.8,10.2-11.7,13.9c0.1,3.7,3.6,7.1,8,12.9s3.2,21.8,16,25.1
	c12.8,3.3,14.2-0.1,16.8-6.9C766.7,1178.8,763.2,1176,760.2,1172.2z M746.7,1146.7c-0.1,0-0.1,0-0.2-0.1
	C746.5,1146.7,746.6,1146.7,746.7,1146.7z M745.4,1146.3L745.4,1146.3L745.4,1146.3z M747.9,1147h-0.1
	C747.8,1147,747.8,1147,747.9,1147z M751.9,1147.5c0.1,0,0.3,0,0.4,0C752.2,1147.6,752,1147.5,751.9,1147.5z M756.8,1165.1
	c0-0.1,0-0.2,0-0.2S756.8,1165,756.8,1165.1z M750.9,1147.5c-0.1,0-0.3,0-0.4,0C750.6,1147.5,750.7,1147.5,750.9,1147.5z
	 M749.1,1147.3c0.1,0,0.1,0,0.2,0C749.3,1147.3,749.2,1147.3,749.1,1147.3z M803.9,1189.2L803.9,1189.2L803.9,1189.2L803.9,1189.2z
	 M827.7,1202.7c-0.1-0.1-0.2-0.2-0.4-0.4l0,0c0.2,1.2,0,2.5-1.2,3.1c-0.1,0.1-0.3,0.1-0.5,0.1h-0.1c-0.2,0-0.4,0-0.6,0l0,0
	c-0.2,0-0.4,0-0.7-0.1c-0.1,0-0.1,0-0.2,0c-0.2,0-0.5-0.1-0.7-0.2l0,0c-0.2-0.1-0.5-0.1-0.8-0.2c-0.1,0-0.1,0-0.2-0.1
	c-0.3-0.1-0.5-0.2-0.8-0.3h-0.1c-0.2-0.1-0.5-0.2-0.7-0.3c-0.1,0-0.2-0.1-0.3-0.1c-0.2-0.1-0.4-0.2-0.6-0.3
	c-0.1-0.1-0.3-0.1-0.4-0.2c-0.1-0.1-0.3-0.1-0.4-0.2c-0.1-0.1-0.3-0.1-0.4-0.2c-0.1,0-0.1-0.1-0.2-0.1c-1.8-0.9-3.1-1.7-3.1-1.7
	l-5.5-5.9l0.8,0.9l-6.9-7.4c-0.1,0-0.1,0-0.2,0c-3.4-0.2-8.3-2.2-8.3-5.2c0,0-9,1.4-4.1,20.1c0,0,0.9,1.4,7.8,3.8s16.5,14,20.1,13.6
	s14.7,0.9,18-6.1C840.5,1208.3,832.6,1207.5,827.7,1202.7z M948.9,728.3L948.9,728.3l24.2,13.6L948.9,728.3z M1165.6,1083
	c-2.6,6.5-3.3,111.5-3.4,128.8c6.1-8.4,12.2-17.4,16.4-26.8c8.7-19.5,7-41.9,4.3-63.1c-1.9-14.9-5.4-31.5-15.9-41.4
	C1166.4,1081.3,1166,1082.1,1165.6,1083z M1005.3,805.4v-10.7c0-0.1-0.1-0.2-0.1-0.2l-30.9-10.7c-0.2-0.1-1.7-0.7-1.5-0.5l32.2,22.3
	C1005.1,805.7,1005.3,805.6,1005.3,805.4z M1191.3,1322.4l14.1-8.2c-0.1-3.4-0.3-6.9-0.4-10.4l-12.7,7.4
	C1192,1314.9,1191.6,1318.7,1191.3,1322.4z M1778.1,671.5v81.7L1424.2,552v-79L1778.1,671.5z M1760.6,696.4c0-15-6.5-27.2-14.4-27.2
	c-8,0-14.4,12.2-14.4,27.2s6.5,27.2,14.4,27.2C1754.1,723.7,1760.6,711.5,1760.6,696.4z M1302.8,465.2L948.9,264v-78.9l353.9,198.5
	V465.2z M1285.3,408.5c0-15-6.5-27.2-14.4-27.2c-8,0-14.4,12.2-14.4,27.2s6.5,27.2,14.4,27.2S1285.3,423.5,1285.3,408.5z
	 M1302.8,1008.4L949.3,804.9l82,47.2v-77.6l271.4,152.2v81.7H1302.8z M1270,920.3l-3-2.3v56.3l3,2.6V920.3z M370.2,872.9L203.7,971
	l100.9,56.8L471.2,930L370.2,872.9z M837.2,1215.3c-2.3,4.8-8.3,5.7-12.9,5.9l-76.4,44.1l-140.1-80.9v32.4l140.1,80.9l252.2-145.6
	v-32.4l-162.2,93.7C837.7,1214,837.5,1214.6,837.2,1215.3z M1265.8,1268.7l140.1,80.9l-252.2,145.6l-107.3-62l5.5-15.9l90.3,52.1
	l0.2-118.9l-103.1,59.5l3.9,2.3l-16.6,9.6l-13.1-7.6l153-88.3l0.5,10.3l2.5,53.9c-0.7,0.6-1.1,1.1-1.1,1.1s-30.1,0.3-21.6,10.3
	c8.4,10,36.7,7.1,38.5,6.3c1.6-0.7,0.5-11.6,0.1-15.4c0.3-3.2,2.6-32.6,5.4-65.4v136l31.9-18.4V1389c1.3-0.5,2.1-1.1,2.2-1.6
	c0.2-0.8-0.8-8.9-1.5-15.1l3.8-70.7l0.6-11L1265.8,1268.7z M1380.2,1353.9l-121.7-70.3l0.3,140.4L1380.2,1353.9z M716.3,900.6
	l-116-0.8l-1.5,0.8V697.1l293.7-169.6V731l-235,135.7L716.3,900.6z M784,696.7l-25.7,14.9l0.1,27.6l25.7-14.9L784,696.7z
	 M758.1,664.2l0.1,27.6L784,677l-0.1-27.6L758.1,664.2z M707.3,731c0,8.7,1,16.7,2.8,23.8c0.6,2.4,1.3,4.7,2.2,6.8
	c0.4,1.1,0.9,2.2,1.3,3.2c2.4,5.4,5.8,10.8,10,16.1c0.4,0.5,0.9,1.1,1.3,1.6c1.3,1.6,2.8,3.2,4.2,4.8l0,0l8.2-4.7l6-3.5l0,0
	c-9.7-17.3-14.6-37.1-14.7-58.8c0-1.4,0-2.8,0-4.3c0.1-2.9,0.2-5.8,0.4-8.7c0.1-1.4,0.2-2.9,0.3-4.3c0.5-5.7,1.3-11.5,2.3-17.1
	c0.3-1.6,0.6-3.2,0.9-4.9c1.4-7.1,3.3-14.9,5.6-23.1c1.4-5.2,3-10.6,4.8-16.3l-14.3,8.2l0,0l0,0c-3.5,7.5-6.6,14.7-9.2,21.5
	c-3,7.8-5.5,15.2-7.3,22c-0.9,3.5-1.7,7-2.4,10.5c-0.8,4.3-1.5,8.5-1.9,12.7c0,0.3-0.1,0.6-0.1,0.9
	C707.5,722.1,707.3,726.6,707.3,731z M857.8,979.4c0,0-16-25.4-20.4-30.4c-4.5-5-5.7-16-5.7-16c0.8-26.7-2.3-37.3-4.6-41.5l0,0
	c-0.2-1.7-0.5-3-0.9-3.6c-1.1-1.4-1.9-2.2-2.5-2.6c-2.1,3.7-5.3,5.9-10.2,5.6h-0.1l1.9,5.4l-3-1.3c0.3,3.9,0.1,8-2.1,9.8
	c-2.9,2.4-9,0.5-13.7-3.8l-1.3,1.7l-2.7-6.5c-0.8-1.4-1.4-2.8-1.8-4.4c0,0-5.7,8.1-15.6,11.8S762.4,918,762.4,918l-17,51.7l1.5,46.2
	c0,0,6.7,5.4,15.8,0l3.2-28.7l-0.1-18.3c0,0,3.7-15.4,10.4-25.2c0,0,5.6,10.3,6.2,25.3c0.6,15-5.3,25.8-5.3,25.8s34.1,18.6,58.4-6.5
	c0,0-1.6-6.2-3.5-14.4l14.7,16.6C856.6,985.7,857.8,979.4,857.8,979.4z M794,1611.5l119.1,68.8v-137.8l-119.2-68.8L794,1611.5z
	 M472.9,1123.1l1,115.9l-166.4,98.3l-1.8-193.3l0.8,77.1L472.9,1123.1z M440.2,1181.3l-0.2-18.7l-80.5,47.3l0.2,18.9L440.2,1181.3z
	 M1506.7,1062.5l271.4,152.2v81.7l-271.4-156.3V1062.5z M1742.3,1262.3l3,2.6v-56.7l-3-2.3V1262.3z M472.9,1123.1l-166.5,98.1
	l-0.8-77.2l-0.7-77.1l99.8-59.2l0.8,77.4L472.9,1123.1z M317.6,1069.1l0.5,57.7l74.8-44.1l-0.6-58L317.6,1069.1z M363.1,1169.4
	l53.7-31.7l-36.2-20.5l-53.6,31.6L363.1,1169.4z"></path>
<path id="color_x5F_2" fill="#0b1948" d="M1192.3,1044.2c0,0,7.2-13.1-0.7-9s-6.5,8.2-6.5,8.2l-0.1,3.9h-2.6c0,0,3.3-10.9-1.5-12.8
	c-4.9-1.9-14.1-4.2-13.8-7.6c0,0-8-11.3,2.3-20.1s22.2,1.2,22.2,1.2s17.2-0.2,19.9,11.7s3.2,12.7,1,18.1s-1.7,10.1-7,10.2
	C1200.3,1047.9,1194.1,1050.9,1192.3,1044.2z M1160,1049.3c1.7,3.2,3-0.8,4.2,0.8c1.2,1.6,2.8-0.1,2.1-4.3c-0.7-4.2-6.4-2.8-6.4-2.8
	S1158.3,1046.1,1160,1049.3z M1161.3,1213.2c0,0.1,0,0.1,0,0.1S1161.3,1213.3,1161.3,1213.2z M1161.4,1215.2l-0.1-1.8l8.3,177.4
	c0,0,6.3,8.1,15.8,2.1c0,0,12.7-157.7,15.1-160.5c2.5-2.8,6.7,137.3,7,136.2c0.4-1.1,9.9,11.6,15.8,3.9l8.8-162.3l-0.3,4.8
	C1213.9,1218.1,1185.7,1220.7,1161.4,1215.2z"></path>
<path id="color_x5F_1" fill="#0984E3" d="M1032.3,1611.6l-119.2,68.7v-137.8l119.3-68.8L1032.3,1611.6z M913.1,1405l-47.7-82.4
	l-119.2,68.6l47.7,82.5L913.1,1405z M1032.4,1473.7l23.8-68.8L937,1473.7l-23.8,68.8L1032.4,1473.7z M1000.1,1119.8L860,1038.9
	l-35.1,20.3c-1,4.6-2.1,8.9-3.3,12.5l31-17.9l121.7,70.3l-142.1,82c3.4,2.1,6.4,3.7,5.6,7.4L1000.1,1119.8z M824.3,1221.3
	l-76.4,44.1l-140.1-80.9l183.1-105.7c-1.2,2.9-3.4,6.6-7.7,9.8c-6,4.4-11.6,8.4-16.2,14.7l-133.5,77.1l121.7,70.3l57.3-33.1
	c2.8,2.4,5.3,4.2,6.7,4C820.3,1221.3,822.2,1221.4,824.3,1221.3z M773.6,1052.4c3.6-21.1,5.1-59.5,5.1-59.5
	c36.7,4.1,53.6-8.2,53.6-8.2l5.4,52.3c0,0-11.6,10.2-27.4,8.7l1,10.1l0.1,4.1C805,1061.6,786.5,1064.9,773.6,1052.4
	C773.6,1052.3,773.6,1052.4,773.6,1052.4z M830,838c0,0-1,5.1-4.7,6.8c0,0,8.8,12,1.8,22.4c0,0-2.2-16.7-4.8-18.3
	c0,0-3.7,12.6-26.4,4c0,0-3.9,9.3-1.7,17.7c0,0-4.4-3.1-3.8-5.8c0,0-2.2,1.9-4.9,0s-4.4-13.9,2.8-19c0,0-0.9-6.3,5.6-8.3
	s26.4,0.5,29.4-2.8c3.1-3.3,3.6-6,3.6-6s2.3,5.4-0.4,9.4C826.5,838,827.8,839.9,830,838z M785.1,1116.3v117l-29.9,17.2l-18.8-10.9
	l0.1-63.8c1.8,5.9,4.6,12,11.9,13.9c12.8,3.3,14.2-0.1,16.8-6.9c1.5-4-1.9-6.8-4.9-10.6l0,0c-0.2-0.3-0.5-0.6-0.7-1l-0.1-0.1
	c-0.2-0.3-0.4-0.7-0.7-1c0,0,0-0.1-0.1-0.1c-0.2-0.3-0.4-0.7-0.6-1c0,0,0-0.1-0.1-0.1c-0.2-0.4-0.3-0.7-0.5-1.1c0,0,0-0.1-0.1-0.1
	c-0.2-0.4-0.3-0.9-0.5-1.4v-0.1c-0.1-0.4-0.2-0.9-0.3-1.4c-0.1-0.4-0.1-0.8-0.1-1.2c0-0.1,0-0.2,0-0.3c0-0.5,0-1,0-1.5l0,0
	c0-0.7,0.1-1.4,0.1-2c0-1.2,0-2.2-0.1-3.2l0,0c0,0,0,0,0-0.1c0-0.3-0.1-0.6-0.1-0.9c0-0.2,0-0.4-0.1-0.5c0-0.1,0-0.1,0-0.2
	c0-0.2-0.1-0.4-0.1-0.6c0-0.1,0-0.3-0.1-0.4l0,0c-0.8-4.7-2.5-6.3-2.5-6.3c-0.1,0-0.2,0-0.3,0c0.1-0.5,0.2-1,0.3-1.4
	C755,1142.5,775.7,1126.1,785.1,1116.3z M736.5,1137.5v-16.7l30.4-17.5c-2.1,2.8-3.9,6-5.5,10c-5.2,12.8-18.7,22-22.6,23.4
	C738.2,1136.7,737.4,1137.1,736.5,1137.5z M852.6,1053.7l0.3,140.4l-20.6,11.9c-1.5-0.9-3.2-2-4.6-3.3c-0.1-0.1-0.2-0.2-0.4-0.4
	c-1-1-2.1-2.2-3.3-3.6c-0.2-0.3-0.4-0.5-0.7-0.8c-0.2-0.2-0.4-0.5-0.6-0.7c-0.2-0.3-0.5-0.6-0.7-0.8c-0.4-0.4-0.7-0.8-1.1-1.3
	c-0.9-1.1-1.8-2.1-2.6-3.2l0,0c-0.4-0.5-0.9-1-1.3-1.5l0,0l0,0c-0.1-0.1-0.1-0.1-0.2-0.2v-108.6c0.4-0.6,0.8-1.2,1.2-1.8
	c1.2-2,2.4-4.8,3.5-8.1L852.6,1053.7z M1232.7,1098.6c-2-29.2-12.8-28.9-14.9-30.3l0,0c-12.4-8-20.9-1.4-20.9-1.4v-4.3l-17.5,2.9
	c-0.7,3.1-1.5,6-1.5,6s-9.2,3.1-12.7,9.2l-0.1-0.2c-0.7,0.4-20.8,9.2-18.7,61.2l-15.7-15.3l-13.6,7.9l-5.2-3
	c5.9,10.3,23.2,39.2,35.6,43.5c5.8,2,10.5,0.9,14-1.4c-0.3,22.3-0.3,39.9-0.3,39.9l0.1,1.8c24.4,5.6,52.5,2.9,70.6-0.2l0.3-4.8
	c0,0,0.1-2.5,0.2-6.8l6.5-2.4C1238.9,1201,1234.7,1127.8,1232.7,1098.6z M1178.6,1185.1c-4.2,9.4-10.2,18.4-16.4,26.8
	c0.1-17.4,0.8-122.4,3.4-128.8c0.4-0.9,0.8-1.7,1.4-2.5c10.5,9.9,14,26.5,15.9,41.4C1185.6,1143.1,1187.3,1165.5,1178.6,1185.1z
	 M1424.2,432.2v40.7l353.9,198.5v-35L1424.2,432.2z M1481.5,496l-5.3-3.1v-21.4l5.3,3.6V496z M1488.1,500.1l-5.3-3.1v-17l5.3,3.6
	V500.1z M1494.7,504.4l-5.3-3.1v-12.8l5.3,3.6V504.4z M1501.3,508.5l-5.3-3.1v-7.1l5.3,3.6V508.5z M1769.2,656.8l-24.4-13.7v-5.2
	l-2.9-1.5v-5.5l2.9,1.3v-4.9l24.4,12.2V656.8z M1424.2,1016.2l0.4,76.6l82,47.2v-77.6L1424.2,1016.2z M1480.6,1082.7v10.7v14.2
	l-32.6-36.3l0,0l32.5-5.7v17.1H1480.6z M948.9,144.3V185l353.9,198.5v-35L948.9,144.3z M1006.2,208l-5.3-3.1v-21.4l5.3,3.6V208z
	 M1012.8,212.2l-5.3-3.1v-17l5.3,3.6V212.2z M1019.4,216.4l-5.3-3.1v-12.8l5.3,3.6V216.4z M1026,220.6l-5.3-3.1v-7.1l5.3,3.6V220.6z
	 M1293.9,368.9l-24.4-13.7V350l-2.9-1.5V343l2.9,1.3v-4.9l24.4,12.2V368.9z M948.9,728.3l0.4,76.6l82,47.2v-77.6L948.9,728.3z
	 M1005.3,794.7v10.7v14.2l-32.6-36.3l0,0l32.5-5.7v17.1H1005.3z M1013.6,1429.5v-15.2l13.1,7.6L1013.6,1429.5z M1405.9,1349.7v32.4
	l-252.2,145.6l-116.6-67.3l9.3-27l107.3,62L1405.9,1349.7z M404.8,1007.6l66.7-39.1l1.4,154.6l-67.3-38L404.8,1007.6z M307.4,1337.3
	l-100.9-57.1L203.7,971l100.9,56.8L307.4,1337.3z"></path>
</svg>